# xmcd
#
# Track frame offsets: 
#        150
#        15265
#        33108
#        51690
#        66836
#        80983
#        96049
#        114495
#        129604
#        147320
#        159695
#
# Disc length: 2374 seconds
#
# Revision: 1
# Processed by: cddbd v1.5.2PL0 Copyright (c) Steve Scherf et al.
# Submitted via: ExactAudioCopy v0.99pb5
#
DISCID=9709440b
DTITLE=Kristy Hendley - Kristy Hendley
DYEAR=1996
DGENRE=Christian Country
TTITLE0=Raised on Faith
TTITLE1=Let Jesus Do The Talkin'
TTITLE2=Believers' Hearts Get Broken Too
TTITLE3=Rain On Me
TTITLE4=Save Me, Savior (with The Katinas)
TTITLE5=Love Sees It All
TTITLE6=The Day John William Lost Religion
TTITLE7=Good, Good Love
TTITLE8=That's Where I Wanna Take Our Love (with Ken Holloway)
TTITLE9=There's A Woman Behind The Wheel
TTITLE10=With His Arms Wide Open
EXTD=YEAR: 1996 ID3G: 2
EXTT0=
EXTT1=
EXTT2=
EXTT3=
EXTT4=
EXTT5=
EXTT6=
EXTT7=
EXTT8=
EXTT9=
EXTT10=
PLAYORDER=
